# 3ds Max Wavefront OBJ Exporter v0.97b - (c)2007 guruware
# File Created: 10.11.2017 09:54:12

mtllib maison_mur.mtl

#
# object Plane001
#

v  -157.4803 0.0000 -236.2205
v  -157.4803 0.0000 1.1930
v  -71.6824 0.0000 1.1930
v  -71.6824 0.0000 43.9430
v  40.7647 0.0000 43.9430
v  40.7647 0.0000 -236.2205
v  -157.4803 0.0000 108.4987
v  -157.4803 0.0000 236.2205
v  40.7934 0.0000 236.2205
v  40.7934 0.0000 108.4987
v  157.4803 0.0000 236.2205
v  157.4803 0.0000 108.4987
v  46.3441 0.0000 108.4987
v  46.3441 0.0000 236.2205
v  -157.4803 96.3943 103.6036
v  -157.4803 96.3943 108.4987
v  40.7934 96.3804 108.4987
v  40.7934 96.3943 236.2205
v  46.3441 96.3943 236.2205
v  46.3441 96.3804 108.4987
v  83.1570 96.3804 103.6036
v  157.4803 96.3943 108.4987
v  157.4803 96.3943 103.6036
v  89.1588 96.3804 103.6036
v  83.1570 96.3804 48.4752
v  89.1588 96.3804 6.2804
v  157.4803 96.3944 6.2804
v  157.4803 96.3944 1.1930
v  83.1570 96.3804 1.1930
v  83.1570 96.3804 43.9430
v  -77.9853 96.3804 48.4752
v  46.3410 96.3804 43.9430
v  40.7647 96.3804 43.9430
v  -71.6824 96.3804 43.9430
v  -77.9853 96.3804 6.2804
v  -71.6824 96.3804 1.1930
v  -157.4803 96.3944 6.2804
v  -157.4803 96.3944 1.1930
v  -157.4803 0.0000 103.6036
v  83.1570 0.0000 103.6036
v  83.1570 0.0000 48.4752
v  -77.9853 0.0000 48.4752
v  -77.9853 0.0000 6.2804
v  -157.4803 0.0000 6.2804
v  89.1588 0.0000 103.6036
v  157.4803 0.0000 103.6036
v  157.4803 0.0000 6.2804
v  89.1588 0.0000 6.2804
v  46.3410 96.3944 -236.2205
v  40.7647 96.3944 -236.2205
v  46.3410 0.0000 43.9430
v  83.1570 0.0000 43.9430
v  83.1570 0.0000 1.1930
v  157.4803 0.0000 1.1930
v  157.4803 0.0000 -236.2205
v  46.3410 0.0000 -236.2205
v  -157.4803 96.4083 -236.2205
v  157.4803 96.4083 -236.2205
v  157.4803 96.4083 236.2205
v  -157.4803 96.4083 236.2205
v  -165.5194 96.3944 -0.0605
v  -165.5194 96.3944 5.2697
v  -165.5194 96.3943 107.2398
v  -165.5194 96.3943 112.3686
v  42.2212 96.3943 246.1887
v  48.0369 96.3943 246.1887
v  164.4795 96.3943 112.3686
v  164.4795 96.3943 107.2398
v  164.4795 96.3944 5.2697
v  164.4795 96.3944 -0.0605
v  48.0336 96.3944 -248.8097
v  42.1911 96.3944 -248.8097
v  -165.5194 96.4083 -248.8097
v  164.4795 96.4083 -248.8097
v  164.4795 96.4083 246.1887
v  -165.5194 96.4083 246.1887
v  -165.5194 0.0679 -0.0605
v  -165.5194 0.0679 5.2697
v  -165.5194 0.0679 107.2398
v  -165.5194 0.0679 112.3686
v  42.2212 0.0679 246.1887
v  48.0369 0.0679 246.1887
v  164.4795 0.0679 112.3686
v  164.4795 0.0679 107.2398
v  164.4795 0.0679 5.2697
v  164.4795 0.0679 -0.0605
v  48.0336 0.0679 -248.8097
v  42.1911 0.0679 -248.8097
v  -165.5194 0.0819 -248.8097
v  164.4795 0.0819 -248.8097
v  164.4795 0.0819 246.1887
v  -165.5194 0.0819 246.1887
# 92 vertices

vn -0.0000 1.0000 -0.0000
vn 0.0000 1.0000 -0.0000
vn -0.0000 1.0000 0.0000
vn 0.0001 1.0000 0.0000
vn 0.0001 1.0000 -0.0000
vn 0.0000 1.0000 0.0018
vn 0.0000 1.0000 -0.0001
vn 0.0000 1.0000 0.0002
vn 0.0000 1.0000 0.0000
vn -0.0002 1.0000 -0.0000
vn -0.0001 1.0000 -0.0007
vn -0.0001 1.0000 0.0001
vn -0.0002 1.0000 0.0000
vn 0.0001 1.0000 0.0001
vn 0.0002 1.0000 0.0000
vn 0.0002 1.0000 -0.0000
vn 0.0000 0.0000 -1.0000
vn 1.0000 0.0000 -0.0000
vn 0.0000 -0.0000 1.0000
vn 0.0000 0.0000 1.0000
vn -0.0000 -0.0000 -1.0000
vn -1.0000 0.0000 -0.0000
vn -0.0000 0.0000 -1.0000
vn 1.0000 0.0000 0.0000
vn -1.0000 0.0000 0.0000
vn -0.0000 0.0000 1.0000
vn -0.0000 1.0000 0.0001
vn -0.0001 1.0000 -0.0001
vn -0.0001 1.0000 -0.0000
vn 0.0002 1.0000 -0.0001
vn 0.0001 1.0000 -0.0001
vn -0.0001 1.0000 0.0000
vn 0.0000 1.0000 0.0001
# 33 vertex normals

vt 0.0000 1.0000 0.0000
vt 0.0000 0.5000 0.0000
vt 0.2724 0.5000 0.0000
vt 0.2724 0.4143 0.0000
vt 0.5160 0.4143 0.0000
vt 0.5000 1.0000 0.0000
vt 0.0000 0.2659 0.0000
vt 0.0000 0.0000 0.0000
vt 0.6266 0.0000 0.0000
vt 0.6266 0.2659 0.0000
vt 1.0000 0.0000 0.0000
vt 1.0000 0.2659 0.0000
vt 0.6566 0.2659 0.0000
vt 0.6566 0.0000 0.0000
vt 0.0000 0.2851 0.0000
vt 0.7595 0.2851 0.0000
vt 1.0000 0.2851 0.0000
vt 0.7921 0.2851 0.0000
vt 0.7595 0.3909 0.0000
vt 0.7921 0.4842 0.0000
vt 1.0000 0.4842 0.0000
vt 1.0000 0.5000 0.0000
vt 0.7595 0.5000 0.0000
vt 0.7595 0.4143 0.0000
vt 0.2524 0.3909 0.0000
vt 0.6340 0.4143 0.0000
vt 0.2524 0.4842 0.0000
vt 0.0000 0.4842 0.0000
vt 0.5923 1.0000 0.0000
vt 1.0000 1.0000 0.0000
# 30 texture coords

g Plane001
usemtl wire_255255255
s 1
f 1/1/1 2/2/2 3/3/3 
f 3/3/3 4/4/1 5/5/3 
f 1/1/1 3/3/3 5/5/3 
f 1/1/1 5/5/3 6/6/2 
f 7/7/1 8/8/1 9/9/1 
f 9/9/1 10/10/2 7/7/1 
f 11/11/2 12/12/2 13/13/2 
f 13/13/2 14/14/2 11/11/2 
f 15/15/4 16/7/5 17/10/6 
f 17/10/6 18/9/7 19/14/7 
f 17/10/6 19/14/7 20/13/8 
f 15/15/4 17/10/6 20/13/8 
f 21/16/9 15/15/4 20/13/8 
f 22/12/10 23/17/10 24/18/11 
f 20/13/8 22/12/10 24/18/11 
f 21/16/9 20/13/8 24/18/11 
f 25/19/2 21/16/9 24/18/11 
f 26/20/12 27/21/10 28/22/13 
f 26/20/12 28/22/13 29/23/12 
f 26/20/12 29/23/12 30/24/3 
f 24/18/11 26/20/12 30/24/3 
f 25/19/2 24/18/11 30/24/3 
f 31/25/9 25/19/2 30/24/3 
f 31/25/9 30/24/3 32/26/9 
f 31/25/9 32/26/9 33/5/9 
f 31/25/9 33/5/9 34/4/9 
f 35/27/14 31/25/9 34/4/9 
f 35/27/14 34/4/9 36/3/14 
f 37/28/15 35/27/14 36/3/14 
f 38/2/16 37/28/15 36/3/14 
f 39/15/2 40/16/2 41/19/2 
f 39/15/2 41/19/2 42/25/2 
f 39/15/2 42/25/2 43/27/2 
f 44/28/2 39/15/2 43/27/2 
f 45/18/2 46/17/2 47/21/2 
f 47/21/2 48/20/2 45/18/2 
f 32/26/9 49/29/9 50/6/9 
f 50/6/9 33/5/9 32/26/9 
f 51/26/9 52/24/2 53/23/9 
f 53/23/9 54/22/2 55/30/2 
f 51/26/9 53/23/9 55/30/2 
f 51/26/9 55/30/2 56/29/2 
s off
f 46/17/17 45/18/17 24/18/17 
f 24/18/17 23/17/17 46/17/17 
f 45/18/18 48/20/18 26/20/18 
f 26/20/18 24/18/18 45/18/18 
f 48/20/19 47/21/19 27/21/19 
f 27/21/20 26/20/20 48/20/20 
f 54/22/17 53/23/17 29/23/17 
f 29/23/21 28/22/21 54/22/21 
f 53/23/22 52/24/22 30/24/22 
f 30/24/22 29/23/22 53/23/22 
f 52/24/23 51/26/23 32/26/23 
f 32/26/23 30/24/23 52/24/23 
f 51/26/24 56/29/24 49/29/24 
f 49/29/24 32/26/24 51/26/24 
f 6/6/25 5/5/25 33/5/25 
f 33/5/25 50/6/25 6/6/25 
f 5/5/17 4/4/17 34/4/17 
f 34/4/17 33/5/17 5/5/17 
f 4/4/18 3/3/18 36/3/18 
f 36/3/18 34/4/18 4/4/18 
f 3/3/17 2/2/17 38/2/17 
f 38/2/23 36/3/23 3/3/23 
f 44/28/20 43/27/20 35/27/20 
f 35/27/26 37/28/26 44/28/26 
f 43/27/22 42/25/22 31/25/22 
f 31/25/22 35/27/22 43/27/22 
f 42/25/20 41/19/20 25/19/20 
f 25/19/20 31/25/20 42/25/20 
f 41/19/22 40/16/22 21/16/22 
f 21/16/22 25/19/22 41/19/22 
f 40/16/17 39/15/17 15/15/17 
f 15/15/17 21/16/17 40/16/17 
f 7/7/26 10/10/26 17/10/26 
f 17/10/26 16/7/26 7/7/26 
f 10/10/22 9/9/22 18/9/22 
f 18/9/22 17/10/22 10/10/22 
f 14/14/18 13/13/18 20/13/18 
f 20/13/18 19/14/18 14/14/18 
f 13/13/20 12/12/20 22/12/20 
f 22/12/20 20/13/20 13/13/20 
f 2/2/18 1/1/18 57/1/18 
f 57/1/18 38/2/18 2/2/18 
f 56/29/20 55/30/20 58/30/20 
f 58/30/20 49/29/20 56/29/20 
f 12/12/22 11/11/22 59/11/22 
f 59/11/22 22/12/22 12/12/22 
f 9/9/17 8/8/17 60/8/17 
f 60/8/17 18/9/17 9/9/17 
f 8/8/18 7/7/18 16/7/18 
f 16/7/18 60/8/18 8/8/18 
f 47/21/22 46/17/22 23/17/22 
f 23/17/22 27/21/22 47/21/22 
f 11/11/17 14/14/17 19/14/17 
f 19/14/17 59/11/17 11/11/17 
f 55/30/22 54/22/22 28/22/22 
f 28/22/22 58/30/22 55/30/22 
f 39/15/18 44/28/18 37/28/18 
f 37/28/18 15/15/18 39/15/18 
f 1/1/20 6/6/20 50/6/20 
f 50/6/20 57/1/20 1/1/20 
f 37/28/2 38/2/2 61/2/2 
f 61/2/2 62/28/2 37/28/2 
f 16/7/2 15/15/2 63/15/2 
f 63/15/2 64/7/2 16/7/2 
f 19/14/2 18/9/2 65/9/2 
f 65/9/2 66/14/2 19/14/2 
f 23/17/2 22/12/2 67/12/2 
f 67/12/2 68/17/2 23/17/2 
f 28/22/2 27/21/2 69/21/2 
f 69/21/2 70/22/2 28/22/2 
f 50/6/2 49/29/2 71/29/2 
f 71/29/2 72/6/2 50/6/2 
f 38/2/12 57/1/12 73/1/12 
f 73/1/27 61/2/27 38/2/27 
f 49/29/28 58/30/28 74/30/28 
f 74/30/29 71/29/29 49/29/29 
f 22/12/30 59/11/30 75/11/30 
f 75/11/31 67/12/31 22/12/31 
f 18/9/14 60/8/14 76/8/14 
f 76/8/5 65/9/5 18/9/5 
f 60/8/28 16/7/28 64/7/28 
f 64/7/28 76/8/28 60/8/28 
f 27/21/3 23/17/3 68/17/3 
f 68/17/9 69/21/9 27/21/9 
f 59/11/32 19/14/32 66/14/32 
f 66/14/12 75/11/12 59/11/12 
f 58/30/33 28/22/33 70/22/33 
f 70/22/14 74/30/14 58/30/14 
f 15/15/3 37/28/3 62/28/3 
f 62/28/9 63/15/9 15/15/9 
f 57/1/4 50/6/4 72/6/4 
f 72/6/5 73/1/5 57/1/5 
f 62/28/22 61/2/22 77/2/22 
f 77/2/22 78/28/22 62/28/22 
f 64/7/22 63/15/22 79/15/22 
f 79/15/22 80/7/22 64/7/22 
f 66/14/20 65/9/20 81/9/20 
f 81/9/20 82/14/20 66/14/20 
f 68/17/18 67/12/18 83/12/18 
f 83/12/18 84/17/18 68/17/18 
f 70/22/18 69/21/18 85/21/18 
f 85/21/18 86/22/18 70/22/18 
f 72/6/17 71/29/17 87/29/17 
f 87/29/17 88/6/17 72/6/17 
f 61/2/22 73/1/22 89/1/22 
f 89/1/22 77/2/22 61/2/22 
f 71/29/23 74/30/23 90/30/23 
f 90/30/23 87/29/23 71/29/23 
f 67/12/18 75/11/18 91/11/18 
f 91/11/18 83/12/18 67/12/18 
f 65/9/20 76/8/20 92/8/20 
f 92/8/20 81/9/20 65/9/20 
f 76/8/22 64/7/22 80/7/22 
f 80/7/22 92/8/22 76/8/22 
f 69/21/18 68/17/18 84/17/18 
f 84/17/18 85/21/18 69/21/18 
f 75/11/20 66/14/20 82/14/20 
f 82/14/20 91/11/20 75/11/20 
f 74/30/18 70/22/18 86/22/18 
f 86/22/18 90/30/18 74/30/18 
f 63/15/22 62/28/22 78/28/22 
f 78/28/22 79/15/22 63/15/22 
f 73/1/17 72/6/17 88/6/17 
f 88/6/17 89/1/17 73/1/17 
# 166 faces

